<mxfile host="Electron" modified="2023-06-19T12:31:58.535Z" agent="Mozilla/5.0 (X11; Linux x86_64) AppleWebKit/537.36 (KHTML, like Gecko) draw.io/21.2.1 Chrome/112.0.5615.87 Electron/24.1.2 Safari/537.36" etag="U7QkjJm02hTlRXtjU_u1" version="21.2.1" type="device">
  <diagram name="Seite-1" id="-XhlRZhIICdfFYjHTgKn">
    <mxGraphModel dx="1434" dy="1003" grid="1" gridSize="10" guides="1" tooltips="1" connect="1" arrows="1" fold="1" page="1" pageScale="1" pageWidth="827" pageHeight="1169" math="0" shadow="0">
      <root>
        <mxCell id="0" />
        <mxCell id="1" parent="0" />
        <mxCell id="6TcdIyrJK6zv277o2cOy-13" style="edgeStyle=orthogonalEdgeStyle;rounded=0;orthogonalLoop=1;jettySize=auto;html=1;exitX=0;exitY=0.5;exitDx=0;exitDy=0;entryX=0;entryY=0.78;entryDx=0;entryDy=0;entryPerimeter=0;endArrow=none;endFill=0;fontSize=20;" edge="1" parent="1" source="6TcdIyrJK6zv277o2cOy-1" target="6TcdIyrJK6zv277o2cOy-2">
          <mxGeometry relative="1" as="geometry" />
        </mxCell>
        <mxCell id="6TcdIyrJK6zv277o2cOy-1" value="&lt;font style=&quot;font-size: 25px;&quot;&gt;A&lt;/font&gt;" style="verticalLabelPosition=middle;shadow=0;dashed=0;align=center;html=1;verticalAlign=middle;strokeWidth=1;shape=ellipse;aspect=fixed;fontSize=20;fillColor=#f5f5f5;fontColor=#333333;strokeColor=#666666;" vertex="1" parent="1">
          <mxGeometry x="440" y="360" width="80" height="80" as="geometry" />
        </mxCell>
        <mxCell id="6TcdIyrJK6zv277o2cOy-14" style="edgeStyle=orthogonalEdgeStyle;rounded=0;orthogonalLoop=1;jettySize=auto;html=1;exitX=1;exitY=0.78;exitDx=0;exitDy=0;exitPerimeter=0;entryX=0.5;entryY=1;entryDx=0;entryDy=0;entryPerimeter=0;endArrow=none;endFill=0;fontSize=20;" edge="1" parent="1" source="6TcdIyrJK6zv277o2cOy-2" target="6TcdIyrJK6zv277o2cOy-6">
          <mxGeometry relative="1" as="geometry" />
        </mxCell>
        <mxCell id="6TcdIyrJK6zv277o2cOy-15" style="edgeStyle=orthogonalEdgeStyle;rounded=0;orthogonalLoop=1;jettySize=auto;html=1;exitX=0.7;exitY=0;exitDx=0;exitDy=0;exitPerimeter=0;entryX=0.25;entryY=0;entryDx=0;entryDy=0;endArrow=none;endFill=0;fontSize=20;" edge="1" parent="1" source="6TcdIyrJK6zv277o2cOy-2" target="6TcdIyrJK6zv277o2cOy-3">
          <mxGeometry relative="1" as="geometry" />
        </mxCell>
        <mxCell id="6TcdIyrJK6zv277o2cOy-16" style="edgeStyle=orthogonalEdgeStyle;rounded=0;orthogonalLoop=1;jettySize=auto;html=1;exitX=0.3;exitY=0;exitDx=0;exitDy=0;exitPerimeter=0;entryX=0.75;entryY=0;entryDx=0;entryDy=0;endArrow=none;endFill=0;fontSize=20;" edge="1" parent="1" source="6TcdIyrJK6zv277o2cOy-2" target="6TcdIyrJK6zv277o2cOy-3">
          <mxGeometry relative="1" as="geometry" />
        </mxCell>
        <mxCell id="6TcdIyrJK6zv277o2cOy-2" value="" style="pointerEvents=1;verticalLabelPosition=bottom;shadow=0;dashed=0;align=center;html=1;verticalAlign=top;shape=mxgraph.electrical.resistors.resistor,_shunt;direction=west;fontSize=20;fillColor=#f5f5f5;fontColor=#333333;strokeColor=#666666;" vertex="1" parent="1">
          <mxGeometry x="300" y="390" width="100" height="45" as="geometry" />
        </mxCell>
        <mxCell id="6TcdIyrJK6zv277o2cOy-3" value="ADS1115" style="rounded=0;whiteSpace=wrap;html=1;fontSize=20;fillColor=#fff2cc;strokeColor=#d6b656;" vertex="1" parent="1">
          <mxGeometry x="290" y="435" width="120" height="60" as="geometry" />
        </mxCell>
        <mxCell id="6TcdIyrJK6zv277o2cOy-12" style="edgeStyle=orthogonalEdgeStyle;rounded=0;orthogonalLoop=1;jettySize=auto;html=1;exitX=0.25;exitY=1;exitDx=0;exitDy=0;endArrow=none;endFill=0;fontSize=20;" edge="1" parent="1" source="6TcdIyrJK6zv277o2cOy-4" target="6TcdIyrJK6zv277o2cOy-1">
          <mxGeometry relative="1" as="geometry">
            <Array as="points">
              <mxPoint x="580" y="450" />
              <mxPoint x="540" y="450" />
              <mxPoint x="540" y="400" />
            </Array>
          </mxGeometry>
        </mxCell>
        <mxCell id="6TcdIyrJK6zv277o2cOy-4" value="elektronische Last" style="rounded=0;whiteSpace=wrap;html=1;fontSize=20;fillColor=#f8cecc;strokeColor=#b85450;" vertex="1" parent="1">
          <mxGeometry x="550" y="370" width="120" height="60" as="geometry" />
        </mxCell>
        <mxCell id="6TcdIyrJK6zv277o2cOy-11" style="edgeStyle=orthogonalEdgeStyle;rounded=0;orthogonalLoop=1;jettySize=auto;html=1;exitX=0.5;exitY=0;exitDx=0;exitDy=0;exitPerimeter=0;entryX=0.25;entryY=0;entryDx=0;entryDy=0;endArrow=none;endFill=0;fontSize=20;" edge="1" parent="1" source="6TcdIyrJK6zv277o2cOy-6" target="6TcdIyrJK6zv277o2cOy-4">
          <mxGeometry relative="1" as="geometry" />
        </mxCell>
        <mxCell id="6TcdIyrJK6zv277o2cOy-6" value="" style="pointerEvents=1;verticalLabelPosition=bottom;shadow=0;dashed=0;align=center;html=1;verticalAlign=top;shape=mxgraph.electrical.signal_sources.source;aspect=fixed;points=[[0.5,0,0],[1,0.5,0],[0.5,1,0],[0,0.5,0]];elSignalType=dc3;fontSize=20;fillColor=#d5e8d4;strokeColor=#82b366;" vertex="1" parent="1">
          <mxGeometry x="180" y="360" width="80" height="80" as="geometry" />
        </mxCell>
        <mxCell id="6TcdIyrJK6zv277o2cOy-17" value="&lt;font style=&quot;font-size: 20px;&quot;&gt;Shunt&lt;/font&gt;" style="text;html=1;strokeColor=none;fillColor=none;align=center;verticalAlign=middle;whiteSpace=wrap;rounded=0;" vertex="1" parent="1">
          <mxGeometry x="320" y="360" width="60" height="30" as="geometry" />
        </mxCell>
        <mxCell id="6TcdIyrJK6zv277o2cOy-18" value="&lt;font style=&quot;font-size: 20px;&quot;&gt;Netzteil&lt;/font&gt;" style="text;html=1;align=center;verticalAlign=middle;whiteSpace=wrap;rounded=0;" vertex="1" parent="1">
          <mxGeometry x="190" y="385" width="60" height="30" as="geometry" />
        </mxCell>
        <mxCell id="6TcdIyrJK6zv277o2cOy-20" value="&lt;font style=&quot;font-size: 20px;&quot;&gt;Multimeter&lt;/font&gt;" style="text;html=1;strokeColor=none;fillColor=none;align=center;verticalAlign=middle;whiteSpace=wrap;rounded=0;" vertex="1" parent="1">
          <mxGeometry x="450" y="445" width="60" height="30" as="geometry" />
        </mxCell>
      </root>
    </mxGraphModel>
  </diagram>
</mxfile>
